<svg xmlns="http://www.w3.org/2000/svg" version="1.1" xmlns:xlink="http://www.w3.org/1999/xlink" xmlns:svgjs="http://svgjs.com/svgjs" width="600" height="600"><svg height="600" viewBox="0 0 600 600" width="600" xmlns="http://www.w3.org/2000/svg"><path d="m597 300c0-164.029-132.971-297-297-297s-297 132.971-297 297 132.971 297 297 297 297-132.971 297-297z" fill="#333"></path><path d="m560.539 360.312c-.012-62.084-25.187-118.285-65.88-158.963-40.549-40.534-96.506-65.652-158.329-65.818 0 0-.657-.001-.657-.001m0 0c-76.388.37-138.191 62.415-138.177 138.887m0 0c.009 47.256 37.487 84.937 84.66 85.282 0 0-.443.003-.332.002.109.001.218.002.328.002l-.004-.004c28.694-.355 52.546-24.217 52.89-52.91 0 0-.002.01-.002.01-.352-17.958-15.021-32.405-33.062-32.402m0 0" fill="none" stroke="#ccc" stroke-linecap="round" stroke-linejoin="round" stroke-width="10"></path><path d="m363.684 39.651c-62.083 0-118.289 25.164-158.975 65.85-40.541 40.541-65.67 96.494-65.847 158.316 0 0-.002.658-.002.658m0 0c.356 76.388 62.39 138.202 138.862 138.202m0 0c47.256 0 84.944-37.471 85.297-84.643 0 0 .004.443.003.332.001-.11.001-.219.001-.329l-.003.004c-.35-28.693-24.207-52.55-52.901-52.9 0 0 .011.003.011.003-17.958.349-32.408 15.015-32.408 33.056m0 0" fill="none" stroke="#ccc" stroke-linecap="round" stroke-linejoin="round" stroke-width="10"></path><path d="m38.302 239.365c0 62.084 25.165 118.29 65.85 158.976 40.541 40.541 96.494 65.67 158.317 65.847 0 0 .657.001.657.001m0 0c76.388-.355 138.203-62.39 138.203-138.861m0 0c0-47.256-37.471-84.944-84.644-85.298 0 0 .443-.003.332-.002-.11-.001-.219-.002-.328-.002l.004.004c-28.694.35-52.551 24.207-52.9 52.9 0 0 .002-.01.002-.01.349 17.958 15.015 32.408 33.056 32.408m0 0" fill="none" stroke="#ccc" stroke-linecap="round" stroke-linejoin="round" stroke-width="10"></path><path d="m237.781 559.399c62.084 0 118.29-25.165 158.975-65.85 40.542-40.541 65.67-96.494 65.848-158.317 0 0 .001-.657.001-.657m0 0c-.356-76.388-62.39-138.203-138.861-138.203m0 0c-47.257 0-84.944 37.471-85.298 84.644 0 0-.003-.443-.003-.332 0 .11-.001.219-.001.328l.004-.004c.35 28.694 24.206 52.551 52.9 52.9 0 0-.01-.002-.01-.002 17.957-.349 32.407-15.015 32.407-33.056m0 0" fill="none" stroke="#ccc" stroke-linecap="round" stroke-linejoin="round" stroke-width="10"></path><g fill="#fff"><path d="m216.713 214.833c-2.792-3.774-8.112-4.572-11.882-1.782-3.77 2.789-4.563 8.11-1.771 11.884 2.792 3.773 8.112 4.571 11.882 1.782s4.563-8.11 1.771-11.884z"></path><path d="m392.709 204.818c-2.792-3.774-8.112-4.572-11.882-1.782-3.771 2.789-4.564 8.11-1.771 11.884 2.792 3.773 8.111 4.571 11.882 1.782 3.77-2.789 4.563-8.11 1.771-11.884z"></path><path d="m396.709 375.833c-2.792-3.774-8.112-4.572-11.882-1.782-3.771 2.789-4.564 8.11-1.771 11.884 2.792 3.773 8.111 4.571 11.882 1.782 3.77-2.789 4.563-8.11 1.771-11.884z"></path><path d="m316.709 413.833c-2.792-3.774-8.112-4.572-11.882-1.782-3.771 2.789-4.564 8.11-1.771 11.884 2.792 3.773 8.111 4.571 11.882 1.782 3.77-2.789 4.563-8.11 1.771-11.884z"></path><path d="m220.709 380.833c-2.792-3.774-8.112-4.572-11.882-1.782-3.771 2.789-4.564 8.11-1.771 11.884 2.792 3.773 8.111 4.571 11.882 1.782 3.77-2.789 4.563-8.11 1.771-11.884z"></path><path d="m185.709 300.833c-2.792-3.774-8.112-4.572-11.882-1.782-3.771 2.789-4.564 8.11-1.772 11.884 2.793 3.773 8.112 4.571 11.883 1.782 3.77-2.789 4.563-8.11 1.771-11.884z"></path><path d="m343.79 218.926c-.518-3.273-3.591-5.506-6.864-4.989-3.273.518-5.506 3.591-4.989 6.864.518 3.273 3.591 5.506 6.864 4.989 3.273-.518 5.506-3.591 4.989-6.864z"></path><path d="m386.79 333.926c-.518-3.273-3.591-5.506-6.864-4.989-3.273.518-5.506 3.591-4.989 6.864.518 3.273 3.591 5.506 6.864 4.989 3.273-.518 5.506-3.591 4.989-6.864z"></path><path d="m156 229c0-8.837-7.163-16-16-16s-16 7.163-16 16 7.163 16 16 16 16-7.163 16-16z"></path><path d="m439 299c0-8.837-7.163-16-16-16s-16 7.163-16 16 7.163 16 16 16 16-7.163 16-16z"></path><path d="m317 491c0-8.837-7.163-16-16-16s-16 7.163-16 16 7.163 16 16 16 16-7.163 16-16z"></path><path d="m399.784 151.222c4.724-5.035 4.472-12.945-.562-17.669-5.035-4.724-12.945-4.472-17.669.563-4.724 5.034-4.472 12.945.563 17.668 5.034 4.724 12.945 4.472 17.668-.562z"></path><path d="m483.784 264.222c4.724-5.035 4.472-12.945-.562-17.669-5.035-4.724-12.945-4.472-17.669.563-4.724 5.034-4.472 12.945.563 17.668 5.034 4.724 12.945 4.472 17.668-.562z"></path><path d="m463.784 400.222c4.724-5.035 4.472-12.945-.562-17.669-5.035-4.724-12.945-4.472-17.669.563-4.724 5.034-4.472 12.945.563 17.668 5.034 4.724 12.945 4.472 17.668-.562z"></path><path d="m152.784 435.222c4.724-5.035 4.472-12.945-.562-17.669-5.035-4.724-12.945-4.472-17.669.563-4.724 5.034-4.472 12.945.563 17.668 5.034 4.724 12.945 4.472 17.668-.562z"></path><path d="m134.784 352.222c4.724-5.035 4.472-12.945-.562-17.669-5.035-4.724-12.945-4.472-17.669.563-4.724 5.034-4.472 12.945.563 17.668 5.034 4.724 12.945 4.472 17.668-.562z"></path><path d="m262.784 134.222c4.724-5.035 4.472-12.945-.562-17.669-5.035-4.724-12.945-4.472-17.669.563-4.724 5.034-4.472 12.945.563 17.668 5.034 4.724 12.945 4.472 17.668-.562z"></path></g><path d="m329 300.025c0-15.464-12.536-28-28-28s-28 12.536-28 28c0 15.465 12.536 28 28 28s28-12.535 28-28z" fill="#333"></path></svg><style>@media (prefers-color-scheme: light) { :root { filter: none; } }
</style></svg>